<svg xmlns="http://www.w3.org/2000/svg" viewBox="0 0 24 30" x="0px" y="0px"><title>_</title><g><path d="M20.5,13H20V12a3,3,0,0,0-3-3H13V6.7226a2,2,0,1,0-2,0V9H7a3,3,0,0,0-3,3v1H3.5a1.5,1.5,0,0,0,0,3H4v1a3,3,0,0,0,3,3H17a3,3,0,0,0,3-3V16h.5a1.5,1.5,0,0,0,0-3ZM10,14.5A1.5,1.5,0,1,1,8.5,13,1.5,1.5,0,0,1,10,14.5Zm7,0A1.5,1.5,0,1,1,15.5,13,1.5,1.5,0,0,1,17,14.5Z"/></g><text x="0" y="39" fill="#000000" font-size="5px" font-weight="bold" font-family="'Helvetica Neue', Helvetica, Arial-Unicode, Arial, Sans-serif">Created by Sophia</text><text x="0" y="44" fill="#000000" font-size="5px" font-weight="bold" font-family="'Helvetica Neue', Helvetica, Arial-Unicode, Arial, Sans-serif">from the Noun Project</text></svg>